HIERARCHY
ROOT Hips
{
OFFSET 0.0000 111.0000 0.0000
CHANNELS 6 Xposition Yposition Zposition Yrotation Xrotation Zrotation
	JOINT RightUpperLeg
	{
		OFFSET -10.5000 -8.8000 0.0000
		CHANNELS 3 Yrotation Xrotation Zrotation
		JOINT RightLowerLeg
		{
			OFFSET 0.0000 -45.6000 0.0000
			CHANNELS 3 Yrotation Xrotation Zrotation
			JOINT RightFoot
			{
				OFFSET 0.0000 -46.7000 0.0000
				CHANNELS 3 Yrotation Xrotation Zrotation
				JOINT RightToe
				{
					OFFSET 0.0000 -8.0000 12.1000
					CHANNELS 3 Yrotation Xrotation Zrotation
					End Site
					{
						OFFSET 0.0000 0.0000 2.4200
					}
				}
			}
		}
	}
	JOINT LeftUpperLeg
	{
		OFFSET 10.5000 -8.8000 0.0000
		CHANNELS 3 Yrotation Xrotation Zrotation
		JOINT LeftLowerLeg
		{
			OFFSET 0.0000 -45.6000 0.0000
			CHANNELS 3 Yrotation Xrotation Zrotation
			JOINT LeftFoot
			{
				OFFSET 0.0000 -46.7000 0.0000
				CHANNELS 3 Yrotation Xrotation Zrotation
				JOINT LeftToe
				{
					OFFSET 0.0000 -8.0000 12.1000
					CHANNELS 3 Yrotation Xrotation Zrotation
					End Site
					{
						OFFSET 0.0000 0.0000 2.4200
					}
				}
			}
		}
	}
	JOINT Spine
	{
		OFFSET 0.0000 9.7000 0.0000
		CHANNELS 3 Yrotation Xrotation Zrotation
		JOINT Spine1
		{
			OFFSET 0.0000 11.2000 0.0000
			CHANNELS 3 Yrotation Xrotation Zrotation
			JOINT Spine2
			{
				OFFSET 0.0000 12.1000 0.0000
				CHANNELS 3 Yrotation Xrotation Zrotation
				JOINT Spine3
				{
					OFFSET 0.0000 11.7000 1.2000
					CHANNELS 3 Yrotation Xrotation Zrotation
					JOINT Neck
					{
						OFFSET 0.0000 12.0000 -1.2000
						CHANNELS 3 Yrotation Xrotation Zrotation
						JOINT Head
						{
							OFFSET 0.0000 10.0000 0.0000
							CHANNELS 3 Yrotation Xrotation Zrotation
							End Site
							{
								OFFSET 0.0000 20.0000 0.0000
							}
						}
					}
					JOINT RightShoulder
					{
						OFFSET -4.9000 4.0000 -1.2000
						CHANNELS 3 Yrotation Xrotation Zrotation
						JOINT RightUpperArm
						{
							OFFSET -15.6000 0.0000 0.0000
							CHANNELS 3 Yrotation Xrotation Zrotation
							JOINT RightLowerArm
							{
								OFFSET -25.9000 0.0000 0.0000
								CHANNELS 3 Yrotation Xrotation Zrotation
								JOINT RightHand
								{
									OFFSET -28.4000 0.0000 0.0000
									CHANNELS 3 Yrotation Xrotation Zrotation
									JOINT RightThumbFinger
									{
										OFFSET -3.4000 0.3000 4.2000
										CHANNELS 3 Yrotation Xrotation Zrotation
										JOINT RightThumbFinger1
										{
											OFFSET -3.5000 0.0000 3.5000
											CHANNELS 3 Yrotation Xrotation Zrotation
											JOINT RightThumbFinger2
											{
												OFFSET -2.5000 0.0000 2.4000
												CHANNELS 3 Yrotation Xrotation Zrotation
												End Site
												{
													OFFSET -2.1450 0.0000 2.0592
												}
											}
										}
									}
									JOINT RightIndexFinger
									{
										OFFSET -4.4000 0.7000 2.6000
										CHANNELS 3 Yrotation Xrotation Zrotation
										JOINT RightIndexFinger1
										{
											OFFSET -7.0000 -0.1000 1.4000
											CHANNELS 3 Yrotation Xrotation Zrotation
											JOINT RightIndexFinger2
											{
												OFFSET -5.0000 -0.2000 0.0000
												CHANNELS 3 Yrotation Xrotation Zrotation
												JOINT RightIndexFinger3
												{
													OFFSET -2.7000 -0.2000 0.0000
													CHANNELS 3 Yrotation Xrotation Zrotation
													End Site
													{
														OFFSET -2.3814 -0.1764 0.0000
													}
												}
											}
										}
									}
									JOINT RightMiddleFinger
									{
										OFFSET -4.6000 0.7000 1.0000
										CHANNELS 3 Yrotation Xrotation Zrotation
										JOINT RightMiddleFinger1
										{
											OFFSET -7.0000 -0.1000 0.4000
											CHANNELS 3 Yrotation Xrotation Zrotation
											JOINT RightMiddleFinger2
											{
												OFFSET -5.3000 -0.3000 0.0000
												CHANNELS 3 Yrotation Xrotation Zrotation
												JOINT RightMiddleFinger3
												{
													OFFSET -3.4000 -0.3000 0.0000
													CHANNELS 3 Yrotation Xrotation Zrotation
													End Site
													{
														OFFSET -2.9988 -0.2646 0.0000
													}
												}
											}
										}
									}
									JOINT RightRingFinger
									{
										OFFSET -4.5000 0.8000 -0.1000
										CHANNELS 3 Yrotation Xrotation Zrotation
										JOINT RightRingFinger1
										{
											OFFSET -6.3000 -0.1000 -0.7000
											CHANNELS 3 Yrotation Xrotation Zrotation
											JOINT RightRingFinger2
											{
												OFFSET -4.7000 -0.4000 0.0000
												CHANNELS 3 Yrotation Xrotation Zrotation
												JOINT RightRingFinger3
												{
													OFFSET -3.2000 -0.3000 0.0000
													CHANNELS 3 Yrotation Xrotation Zrotation
													End Site
													{
														OFFSET -2.8224 -0.2646 0.0000
													}
												}
											}
										}
									}
									JOINT RightPinkyFinger
									{
										OFFSET -4.3000 0.7000 -1.6000
										CHANNELS 3 Yrotation Xrotation Zrotation
										JOINT RightPinkyFinger1
										{
											OFFSET -5.6000 -0.1000 -1.5000
											CHANNELS 3 Yrotation Xrotation Zrotation
											JOINT RightPinkyFinger2
											{
												OFFSET -3.7000 -0.2000 0.0000
												CHANNELS 3 Yrotation Xrotation Zrotation
												JOINT RightPinkyFinger3
												{
													OFFSET -2.4000 -0.1000 0.0000
													CHANNELS 3 Yrotation Xrotation Zrotation
													End Site
													{
														OFFSET -2.1168 -0.0882 0.0000
													}
												}
											}
										}
									}
								}
							}
						}
					}
					JOINT LeftShoulder
					{
						OFFSET 4.9000 4.0000 -1.2000
						CHANNELS 3 Yrotation Xrotation Zrotation
						JOINT LeftUpperArm
						{
							OFFSET 15.6000 0.0000 0.0000
							CHANNELS 3 Yrotation Xrotation Zrotation
							JOINT LeftLowerArm
							{
								OFFSET 25.9000 0.0000 0.0000
								CHANNELS 3 Yrotation Xrotation Zrotation
								JOINT LeftHand
								{
									OFFSET 28.4000 0.0000 0.0000
									CHANNELS 3 Yrotation Xrotation Zrotation
									JOINT LeftThumbFinger
									{
										OFFSET 3.4000 0.3000 4.2000
										CHANNELS 3 Yrotation Xrotation Zrotation
										JOINT LeftThumbFinger1
										{
											OFFSET 3.5000 0.0000 3.5000
											CHANNELS 3 Yrotation Xrotation Zrotation
											JOINT LeftThumbFinger2
											{
												OFFSET 2.5000 0.0000 2.5000
												CHANNELS 3 Yrotation Xrotation Zrotation
												End Site
												{
													OFFSET 2.1450 0.0000 2.1450
												}
											}
										}
									}
									JOINT LeftIndexFinger
									{
										OFFSET 4.4000 0.7000 2.6000
										CHANNELS 3 Yrotation Xrotation Zrotation
										JOINT LeftIndexFinger1
										{
											OFFSET 7.0000 -0.1000 1.4000
											CHANNELS 3 Yrotation Xrotation Zrotation
											JOINT LeftIndexFinger2
											{
												OFFSET 5.0000 -0.2000 0.0000
												CHANNELS 3 Yrotation Xrotation Zrotation
												JOINT LeftIndexFinger3
												{
													OFFSET 2.7000 -0.2000 0.0000
													CHANNELS 3 Yrotation Xrotation Zrotation
													End Site
													{
														OFFSET 2.3814 -0.1764 0.0000
													}
												}
											}
										}
									}
									JOINT LeftMiddleFinger
									{
										OFFSET 4.6000 0.7000 1.0000
										CHANNELS 3 Yrotation Xrotation Zrotation
										JOINT LeftMiddleFinger1
										{
											OFFSET 7.0000 -0.1000 0.4000
											CHANNELS 3 Yrotation Xrotation Zrotation
											JOINT LeftMiddleFinger2
											{
												OFFSET 5.3000 -0.3000 0.0000
												CHANNELS 3 Yrotation Xrotation Zrotation
												JOINT LeftMiddleFinger3
												{
													OFFSET 3.4000 -0.3000 0.0000
													CHANNELS 3 Yrotation Xrotation Zrotation
													End Site
													{
														OFFSET 2.9988 -0.2646 0.0000
													}
												}
											}
										}
									}
									JOINT LeftRingFinger
									{
										OFFSET 4.5000 0.8000 -0.1000
										CHANNELS 3 Yrotation Xrotation Zrotation
										JOINT LeftRingFinger1
										{
											OFFSET 6.3000 -0.1000 -0.7000
											CHANNELS 3 Yrotation Xrotation Zrotation
											JOINT LeftRingFinger2
											{
												OFFSET 4.7000 -0.3000 0.0000
												CHANNELS 3 Yrotation Xrotation Zrotation
												JOINT LeftRingFinger3
												{
													OFFSET 3.2000 -0.2000 0.0000
													CHANNELS 3 Yrotation Xrotation Zrotation
													End Site
													{
														OFFSET 2.8224 -0.1764 0.0000
													}
												}
											}
										}
									}
									JOINT LeftPinkyFinger
									{
										OFFSET 4.3000 0.7000 -1.6000
										CHANNELS 3 Yrotation Xrotation Zrotation
										JOINT LeftPinkyFinger1
										{
											OFFSET 5.6000 -0.1000 -1.5000
											CHANNELS 3 Yrotation Xrotation Zrotation
											JOINT LeftPinkyFinger2
											{
												OFFSET 3.7000 -0.2000 0.1000
												CHANNELS 3 Yrotation Xrotation Zrotation
												JOINT LeftPinkyFinger3
												{
													OFFSET 2.4000 -0.1000 -0.1000
													CHANNELS 3 Yrotation Xrotation Zrotation
													End Site
													{
														OFFSET 2.1168 -0.0882 -0.0882
													}
												}
											}
										}
									}
								}
							}
						}
					}
				}
			}
		}
	}
}
MOTION
Frames: 9
Frame Time: 0.0166667
-66.0937 -1.9041 -57.5228 114.72 0.27 4.07 -1.01 -9.70 -6.51 9.27 23.81 12.53 -7.24 -17.28 -6.33 -0.00 0.00 0.00 -9.23 -7.04 -4.70 3.99 21.25 -0.45 -0.55 -15.60 1.70 0.00 0.00 0.00 -2.39 1.56 -1.34 -1.54 1.83 -2.63 -1.67 1.98 -2.85 -1.67 1.98 -2.85 16.96 13.07 -84.17 15.95 9.74 -71.74 2.00 4.44 -15.28 44.92 -50.49 -9.17 92.63 -1.43 -5.30 6.79 -11.57 -5.30 1.27 4.65 1.18 1.87 1.85 3.30 3.04 2.89 4.86 -0.00 -0.00 -0.00 2.00 -0.08 2.18 -0.24 -0.63 19.55 -0.19 -0.30 10.26 -0.00 -0.00 -0.00 0.00 -0.00 5.19 0.00 -0.00 31.66 0.00 -0.00 17.45 -0.00 -0.00 -0.00 -1.82 0.58 17.71 1.59 0.47 55.98 0.56 -0.00 35.16 -0.00 -0.00 -0.00 -4.00 0.10 1.47 0.31 1.02 15.39 0.23 0.50 7.95 -0.55 8.42 14.04 -79.01 -55.89 28.40 -75.74 -21.42 -4.92 -9.19 -10.35 -2.31 -0.15 6.55 -0.16 2.66 2.74 -4.51 3.50 4.26 -6.95 0.00 -0.00 0.00 -1.99 -0.06 -1.73 0.22 -0.55 -17.00 0.16 -0.28 -8.84 0.00 -0.00 0.00 0.02 0.00 -1.47 0.10 0.01 -15.31 0.05 -0.01 -7.91 0.00 -0.00 0.00 2.00 0.06 -1.62 -0.17 0.54 -16.35 -0.13 0.26 -8.48 0.00 -0.00 0.00 4.00 0.05 -0.73 -0.12 0.66 -9.70 -0.09 0.33 -4.91
-65.9345 -2.0177 -57.0479 113.97 0.37 3.73 0.78 -9.90 -6.26 8.48 23.91 12.88 -7.81 -17.39 -6.56 0.00 0.00 -0.00 -8.94 -8.61 -3.70 4.74 24.40 -0.62 -0.71 -15.83 1.45 0.00 0.00 0.00 -2.28 1.67 -1.33 -1.54 1.96 -2.61 -1.67 2.11 -2.82 -1.67 2.11 -2.82 17.10 12.54 -84.60 16.04 9.26 -72.11 2.22 4.40 -15.22 44.84 -50.09 -9.26 92.80 -1.70 -5.59 6.52 -11.89 -5.44 1.31 4.81 1.21 1.90 1.92 3.50 3.12 3.01 5.16 0.00 0.00 -0.00 2.00 -0.08 2.25 -0.26 -0.64 19.94 -0.19 -0.31 10.48 0.00 0.00 -0.00 0.00 -0.00 5.35 0.00 -0.00 32.14 0.00 -0.00 17.75 0.00 0.00 -0.00 -1.81 0.58 17.72 1.59 0.46 55.99 0.56 0.00 35.17 0.00 0.00 -0.00 -4.00 0.10 1.45 0.31 1.01 15.31 0.23 0.50 7.91 -0.29 8.26 13.97 -77.33 -56.32 25.64 -75.75 -22.01 -4.97 -9.62 -11.23 -0.92 -0.10 6.82 -0.11 2.78 2.85 -4.46 3.67 4.41 -6.90 0.00 -0.00 -0.00 -2.00 -0.06 -1.74 0.17 -0.56 -17.10 0.13 -0.27 -8.89 0.00 -0.00 -0.00 0.00 0.00 -1.38 0.02 0.00 -14.79 0.01 -0.00 -7.63 0.00 -0.00 -0.00 1.99 0.06 -1.73 -0.21 0.54 -17.00 -0.16 0.27 -8.83 0.00 -0.00 -0.00 4.00 0.05 -0.78 -0.15 0.69 -10.14 -0.11 0.34 -5.14
-65.7973 -2.1490 -56.5917 113.22 0.48 3.36 2.67 -10.16 -5.96 7.80 24.02 13.31 -8.50 -17.51 -6.81 -0.00 -0.00 0.00 -8.43 -10.28 -2.67 5.21 27.77 -0.72 -0.85 -15.88 1.17 -0.00 0.00 -0.00 -2.20 1.77 -1.31 -1.55 2.08 -2.59 -1.68 2.25 -2.80 -1.68 2.25 -2.80 17.30 11.93 -85.13 16.17 8.69 -72.57 2.52 4.37 -15.14 44.76 -49.70 -9.36 92.96 -1.89 -5.92 6.16 -12.18 -5.60 1.35 5.02 1.24 2.02 2.00 3.68 3.32 3.14 5.42 0.00 -0.00 0.00 2.00 -0.08 2.32 -0.27 -0.64 20.29 -0.20 -0.31 10.68 0.00 -0.00 0.00 0.00 -0.00 5.56 0.00 -0.01 32.79 0.00 -0.00 18.17 0.00 -0.00 0.00 -1.81 0.58 17.79 1.60 0.46 56.08 0.56 0.00 35.25 0.00 -0.00 0.00 -4.00 0.10 1.39 0.29 0.99 14.90 0.22 0.49 7.68 0.12 8.07 13.94 -74.99 -57.09 21.80 -75.74 -22.03 -5.13 -9.90 -12.16 1.00 -0.03 7.13 -0.05 3.04 2.96 -4.43 4.03 4.54 -6.88 -0.00 -0.00 -0.00 -2.00 -0.07 -1.88 0.18 -0.61 -17.88 0.14 -0.29 -9.32 -0.00 -0.00 -0.00 -0.00 -0.01 -1.50 -0.03 -0.03 -15.54 -0.02 -0.01 -8.03 -0.00 -0.00 -0.00 1.99 0.06 -2.00 -0.28 0.55 -18.53 -0.21 0.27 -9.69 -0.00 -0.00 -0.00 4.00 0.06 -0.86 -0.18 0.72 -10.88 -0.13 0.36 -5.53
-65.6568 -2.2786 -56.1579 112.48 0.59 2.99 4.36 -10.44 -5.63 7.40 24.11 13.74 -9.20 -17.65 -7.09 -0.00 -0.00 -0.00 -7.83 -11.98 -1.74 5.43 31.19 -0.75 -0.84 -15.77 0.84 0.00 0.00 -0.00 -2.12 1.88 -1.32 -1.57 2.21 -2.58 -1.70 2.38 -2.79 -1.70 2.38 -2.79 17.55 11.25 -85.66 16.34 8.07 -73.03 2.85 4.34 -15.04 44.68 -49.33 -9.45 93.10 -2.01 -6.27 5.77 -12.43 -5.78 1.37 5.20 1.26 2.13 2.07 3.80 3.51 3.25 5.59 -0.00 0.00 0.00 2.00 -0.08 2.35 -0.27 -0.65 20.46 -0.21 -0.31 10.77 -0.00 0.00 0.00 -0.00 -0.00 5.72 0.00 -0.01 33.27 0.00 -0.00 18.47 -0.00 0.00 0.00 -1.81 0.58 17.75 1.59 0.46 56.03 0.56 0.00 35.20 -0.00 0.00 0.00 -4.00 0.09 1.33 0.27 0.97 14.49 0.21 0.48 7.46 0.61 7.84 13.93 -72.10 -58.00 17.25 -75.59 -21.47 -5.40 -10.12 -13.11 3.19 0.04 7.34 0.01 3.26 3.04 -4.35 4.36 4.62 -6.80 -0.00 -0.00 0.00 -2.00 -0.08 -2.02 0.21 -0.63 -18.71 0.16 -0.31 -9.79 -0.00 -0.00 0.00 -0.01 -0.01 -1.67 -0.03 -0.05 -16.62 -0.02 -0.02 -8.63 -0.00 -0.00 0.00 1.99 0.07 -2.26 -0.30 0.57 -19.93 -0.23 0.28 -10.48 -0.00 -0.00 0.00 4.00 0.06 -0.93 -0.19 0.75 -11.44 -0.14 0.38 -5.83
-65.4887 -2.3882 -55.7834 111.75 0.71 2.66 5.64 -10.70 -5.28 7.29 24.13 14.12 -9.75 -17.79 -7.38 -0.00 -0.00 -0.00 -7.38 -13.78 -0.93 5.44 34.76 -0.71 -0.66 -15.36 0.46 -0.00 0.00 0.00 -2.06 1.98 -1.35 -1.59 2.33 -2.59 -1.72 2.51 -2.80 -1.72 2.51 -2.80 17.81 10.55 -86.13 16.50 7.42 -73.44 3.16 4.34 -14.95 44.64 -49.05 -9.55 93.23 -2.06 -6.62 5.37 -12.66 -6.00 1.39 5.33 1.28 2.24 2.12 3.87 3.68 3.33 5.69 0.00 -0.00 -0.00 2.00 -0.08 2.36 -0.27 -0.65 20.50 -0.21 -0.31 10.79 0.00 -0.00 -0.00 -0.00 -0.00 5.84 0.00 -0.00 33.63 0.00 -0.00 18.70 0.00 -0.00 -0.00 -1.82 0.58 17.54 1.58 0.48 55.77 0.57 0.00 34.98 0.00 -0.00 -0.00 -4.00 0.09 1.27 0.26 0.94 14.06 0.19 0.47 7.23 1.13 7.54 13.90 -68.61 -58.91 11.96 -75.34 -20.29 -5.72 -10.24 -14.09 5.53 0.09 7.50 0.07 3.47 3.11 -4.27 4.66 4.67 -6.70 0.00 0.00 -0.00 -2.00 -0.08 -2.15 0.23 -0.64 -19.39 0.18 -0.31 -10.17 0.00 0.00 -0.00 -0.00 -0.01 -1.88 -0.02 -0.05 -17.86 -0.02 -0.03 -9.32 0.00 0.00 -0.00 1.99 0.08 -2.59 -0.32 0.61 -21.55 -0.26 0.29 -11.40 0.00 0.00 -0.00 4.00 0.07 -1.01 -0.20 0.80 -12.12 -0.15 0.40 -6.19
-65.2978 -2.4752 -55.4890 111.04 0.82 2.35 6.49 -10.90 -4.90 7.40 24.09 14.42 -10.11 -17.91 -7.64 -0.00 0.00 0.00 -7.12 -15.57 -0.22 5.24 38.26 -0.70 -0.36 -14.81 0.09 -0.00 0.00 0.00 -2.03 2.10 -1.41 -1.64 2.47 -2.62 -1.77 2.67 -2.83 -1.77 2.67 -2.83 18.08 9.82 -86.53 16.68 6.75 -73.79 3.53 4.25 -14.83 44.51 -48.68 -9.54 93.43 -2.08 -7.03 4.98 -12.85 -6.31 1.42 5.43 1.30 2.34 2.16 3.94 3.84 3.39 5.78 -0.00 -0.00 -0.00 2.00 -0.08 2.34 -0.27 -0.64 20.43 -0.21 -0.31 10.76 -0.00 -0.00 -0.00 0.00 -0.00 5.93 0.00 -0.00 33.90 0.00 -0.00 18.87 -0.00 -0.00 -0.00 -1.82 0.57 17.25 1.57 0.49 55.38 0.59 0.00 34.65 -0.00 -0.00 -0.00 -4.00 0.09 1.22 0.24 0.92 13.68 0.18 0.46 7.03 1.67 7.12 13.84 -64.65 -59.59 6.22 -74.98 -18.56 -6.05 -10.15 -15.04 7.93 0.12 7.60 0.10 3.60 3.15 -4.23 4.86 4.71 -6.65 0.00 -0.00 0.00 -2.00 -0.08 -2.27 0.26 -0.66 -20.03 0.19 -0.32 -10.53 0.00 -0.00 0.00 0.00 -0.01 -2.13 0.00 -0.05 -19.28 -0.01 -0.03 -10.11 0.00 -0.00 0.00 2.00 0.09 -2.93 -0.35 0.65 -23.17 -0.28 0.30 -12.33 0.00 -0.00 0.00 4.00 0.07 -1.09 -0.21 0.84 -12.73 -0.16 0.42 -6.52
-65.0737 -2.5394 -55.2751 110.40 0.94 2.06 6.89 -11.03 -4.49 7.75 23.96 14.61 -10.31 -18.01 -7.87 -0.00 0.00 -0.00 -7.06 -17.28 0.42 4.80 41.49 -0.78 -0.08 -14.28 -0.22 -0.00 0.00 0.00 -2.02 2.23 -1.49 -1.71 2.62 -2.66 -1.85 2.83 -2.88 -1.85 2.83 -2.88 18.36 9.10 -86.83 16.85 6.10 -74.05 3.90 4.09 -14.70 44.34 -48.27 -9.45 93.68 -2.11 -7.46 4.53 -13.09 -6.62 1.46 5.51 1.33 2.46 2.19 4.06 4.03 3.44 5.95 -0.00 -0.00 0.00 2.00 -0.08 2.30 -0.27 -0.64 20.22 -0.20 -0.31 10.63 -0.00 -0.00 0.00 0.00 -0.00 5.98 0.00 -0.00 34.04 0.00 -0.00 18.96 -0.00 -0.00 0.00 -1.84 0.56 16.66 1.54 0.53 54.59 0.63 -0.00 33.98 -0.00 -0.00 0.00 -4.00 0.08 1.17 0.23 0.90 13.35 0.17 0.45 6.85 2.21 6.61 13.78 -60.26 -60.07 -0.09 -74.48 -16.14 -6.48 -9.66 -15.79 10.37 0.15 7.60 0.14 3.73 3.15 -4.19 5.06 4.69 -6.61 -0.00 -0.00 0.00 -2.00 -0.08 -2.33 0.27 -0.66 -20.38 0.20 -0.32 -10.72 -0.00 -0.00 0.00 0.01 -0.01 -2.40 0.02 -0.07 -20.65 -0.00 -0.04 -10.89 -0.00 -0.00 0.00 2.00 0.09 -3.33 -0.37 0.65 -24.86 -0.32 0.29 -13.33 -0.00 -0.00 0.00 4.00 0.08 -1.16 -0.22 0.86 -13.28 -0.17 0.43 -6.81
-64.8006 -2.5839 -55.1204 109.83 1.05 1.76 6.91 -11.08 -4.00 8.30 23.74 14.71 -10.44 -18.08 -8.08 0.00 -0.00 0.00 -7.17 -18.85 1.04 4.09 44.29 -1.02 0.10 -13.82 -0.44 -0.00 0.00 0.00 -2.03 2.35 -1.58 -1.79 2.77 -2.71 -1.94 2.99 -2.94 -1.94 2.99 -2.94 18.62 8.42 -87.07 17.02 5.47 -74.26 4.27 3.90 -14.56 44.17 -47.83 -9.33 93.98 -2.17 -7.88 4.00 -13.38 -6.91 1.50 5.61 1.37 2.59 2.22 4.19 4.25 3.50 6.14 0.00 0.00 -0.00 2.00 -0.08 2.26 -0.26 -0.63 19.99 -0.20 -0.31 10.50 0.00 0.00 -0.00 0.00 -0.00 6.00 0.00 -0.00 34.09 0.00 -0.00 19.00 0.00 0.00 -0.00 -1.85 0.54 16.05 1.50 0.56 53.75 0.68 -0.00 33.28 0.00 0.00 -0.00 -4.00 0.08 1.14 0.22 0.88 13.11 0.17 0.44 6.72 2.73 6.05 13.70 -55.77 -60.31 -6.51 -73.94 -13.31 -6.98 -8.69 -16.24 12.71 0.13 7.40 0.13 3.63 3.07 -4.15 4.92 4.59 -6.53 0.00 0.00 -0.00 -2.00 -0.08 -2.36 0.27 -0.65 -20.49 0.21 -0.31 -10.79 0.00 0.00 -0.00 0.01 -0.01 -2.58 0.03 -0.06 -21.56 0.00 -0.04 -11.40 0.00 0.00 -0.00 2.00 0.11 -3.61 -0.40 0.69 -26.05 -0.34 0.30 -14.03 0.00 0.00 -0.00 4.00 0.08 -1.21 -0.23 0.89 -13.64 -0.18 0.44 -7.00
-64.5186 -2.6166 -55.0122 109.32 1.15 1.47 6.79 -11.07 -3.50 8.87 23.49 14.75 -10.51 -18.12 -8.25 -0.00 0.00 0.00 -7.57 -20.26 1.65 2.97 46.43 -1.60 0.17 -13.49 -0.49 0.00 0.00 -0.00 -2.06 2.48 -1.68 -1.89 2.92 -2.77 -2.05 3.15 -3.00 -2.05 3.15 -3.00 18.88 7.79 -87.29 17.18 4.89 -74.45 4.58 3.72 -14.46 44.05 -47.46 -9.21 94.32 -2.24 -8.27 3.40 -13.70 -7.23 1.54 5.67 1.40 2.69 2.25 4.31 4.41 3.54 6.32 -0.00 0.00 0.00 2.00 -0.08 2.22 -0.26 -0.63 19.80 -0.19 -0.30 10.40 -0.00 0.00 0.00 -0.00 0.00 6.00 -0.00 0.00 34.09 -0.00 0.00 19.00 -0.00 0.00 0.00 -1.86 0.52 15.49 1.48 0.59 52.96 0.73 -0.00 32.63 -0.00 0.00 0.00 -4.00 0.08 1.12 0.22 0.88 13.00 0.16 0.43 6.66 3.17 5.47 13.59 -51.38 -60.28 -12.72 -73.41 -10.26 -7.66 -7.38 -16.35 14.97 0.17 7.25 0.17 3.78 3.01 -4.09 5.16 4.47 -6.45 -0.00 0.00 0.00 -2.00 -0.08 -2.29 0.25 -0.62 -20.13 0.20 -0.30 -10.58 -0.00 0.00 0.00 0.00 -0.00 -2.63 0.01 -0.02 -21.83 0.00 -0.01 -11.55 -0.00 0.00 0.00 2.00 0.12 -3.75 -0.44 0.74 -26.63 -0.35 0.33 -14.37 -0.00 0.00 0.00 4.00 0.09 -1.24 -0.24 0.92 -13.83 -0.19 0.45 -7.10
